{
 "cells": [
  {
   "cell_type": "code",
   "execution_count": 1,
   "metadata": {},
   "outputs": [
    {
     "name": "stderr",
     "output_type": "stream",
     "text": [
      "/home/zheyangq/anaconda3/envs/pytorch/lib/python3.10/site-packages/transformers/utils/generic.py:441: UserWarning: torch.utils._pytree._register_pytree_node is deprecated. Please use torch.utils._pytree.register_pytree_node instead.\n",
      "  _torch_pytree._register_pytree_node(\n"
     ]
    }
   ],
   "source": [
    "# import\n",
    "from transformers import AutoProcessor, AutoModel\n",
    "from PIL import Image\n",
    "import torch\n",
    "import numpy as np\n",
    "import torchvision"
   ]
  },
  {
   "cell_type": "code",
   "execution_count": 17,
   "metadata": {},
   "outputs": [
    {
     "name": "stderr",
     "output_type": "stream",
     "text": [
      "ffmpeg version 4.4.2-0ubuntu0.22.04.1 Copyright (c) 2000-2021 the FFmpeg developers\n",
      "  built with gcc 11 (Ubuntu 11.2.0-19ubuntu1)\n",
      "  configuration: --prefix=/usr --extra-version=0ubuntu0.22.04.1 --toolchain=hardened --libdir=/usr/lib/x86_64-linux-gnu --incdir=/usr/include/x86_64-linux-gnu --arch=amd64 --enable-gpl --disable-stripping --enable-gnutls --enable-ladspa --enable-libaom --enable-libass --enable-libbluray --enable-libbs2b --enable-libcaca --enable-libcdio --enable-libcodec2 --enable-libdav1d --enable-libflite --enable-libfontconfig --enable-libfreetype --enable-libfribidi --enable-libgme --enable-libgsm --enable-libjack --enable-libmp3lame --enable-libmysofa --enable-libopenjpeg --enable-libopenmpt --enable-libopus --enable-libpulse --enable-librabbitmq --enable-librubberband --enable-libshine --enable-libsnappy --enable-libsoxr --enable-libspeex --enable-libsrt --enable-libssh --enable-libtheora --enable-libtwolame --enable-libvidstab --enable-libvorbis --enable-libvpx --enable-libwebp --enable-libx265 --enable-libxml2 --enable-libxvid --enable-libzimg --enable-libzmq --enable-libzvbi --enable-lv2 --enable-omx --enable-openal --enable-opencl --enable-opengl --enable-sdl2 --enable-pocketsphinx --enable-librsvg --enable-libmfx --enable-libdc1394 --enable-libdrm --enable-libiec61883 --enable-chromaprint --enable-frei0r --enable-libx264 --enable-shared\n",
      "  libavutil      56. 70.100 / 56. 70.100\n",
      "  libavcodec     58.134.100 / 58.134.100\n",
      "  libavformat    58. 76.100 / 58. 76.100\n",
      "  libavdevice    58. 13.100 / 58. 13.100\n",
      "  libavfilter     7.110.100 /  7.110.100\n",
      "  libswscale      5.  9.100 /  5.  9.100\n",
      "  libswresample   3.  9.100 /  3.  9.100\n",
      "  libpostproc    55.  9.100 / 55.  9.100\n",
      "Input #0, mov,mp4,m4a,3gp,3g2,mj2, from 'yolos/origin/2_3_0003.mp4':\n",
      "  Metadata:\n",
      "    major_brand     : isom\n",
      "    minor_version   : 512\n",
      "    compatible_brands: isomiso2avc1mp41\n",
      "    encoder         : Lavf60.16.100\n",
      "  Duration: 00:00:02.40, start: 0.000000, bitrate: 2268 kb/s\n",
      "  Stream #0:0(und): Video: h264 (High) (avc1 / 0x31637661), yuv420p, 512x320, 2264 kb/s, 10 fps, 10 tbr, 10240 tbn, 20 tbc (default)\n",
      "    Metadata:\n",
      "      handler_name    : VideoHandler\n",
      "      vendor_id       : [0][0][0][0]\n",
      "Stream mapping:\n",
      "  Stream #0:0 -> #0:0 (h264 (native) -> hevc (libx265))\n",
      "Press [q] to stop, [?] for help\n",
      "x265 [info]: HEVC encoder version 3.5+1-f0c1022b6\n",
      "x265 [info]: build info [Linux][GCC 11.2.0][64 bit] 8bit+10bit+12bit\n",
      "x265 [info]: using cpu capabilities: MMX2 SSE2Fast LZCNT SSSE3 SSE4.2 AVX FMA3 BMI2 AVX2\n",
      "x265 [info]: Main profile, Level-2.1 (Main tier)\n",
      "x265 [warning]: No thread pool allocated, --wpp disabled\n",
      "x265 [warning]: No thread pool allocated, --lookahead-slices disabled\n",
      "x265 [info]: Slices                              : 1\n",
      "x265 [info]: frame threads / pool features       : 5 / none\n",
      "x265 [info]: Coding QT: max CU size, min CU size : 64 / 8\n",
      "x265 [info]: Residual QT: max TU size, max depth : 32 / 1 inter / 1 intra\n",
      "x265 [info]: ME / range / subpel / merge         : hex / 57 / 2 / 3\n",
      "x265 [info]: Keyframe min / max / scenecut / bias  : 10 / 250 / 40 / 5.00 \n",
      "x265 [info]: Lookahead / bframes / badapt        : 20 / 4 / 2\n",
      "x265 [info]: b-pyramid / weightp / weightb       : 1 / 1 / 0\n",
      "x265 [info]: References / ref-limit  cu / depth  : 3 / off / on\n",
      "x265 [info]: AQ: mode / str / qg-size / cu-tree  : 2 / 1.0 / 32 / 1\n",
      "x265 [info]: Rate Control / qCompress            : CRF-18.0 / 0.60\n",
      "x265 [info]: tools: rd=3 psy-rd=2.00 early-skip rskip mode=1 signhide tmvp\n",
      "x265 [info]: tools: b-intra strong-intra-smoothing deblock sao\n",
      "Output #0, mp4, to 'yolos/origin/compressed_2_3_0003.mp4':\n",
      "  Metadata:\n",
      "    major_brand     : isom\n",
      "    minor_version   : 512\n",
      "    compatible_brands: isomiso2avc1mp41\n",
      "    encoder         : Lavf58.76.100\n",
      "  Stream #0:0(und): Video: hevc (hvc1 / 0x31637668), yuv420p(progressive), 512x320, q=2-31, 10 fps, 10240 tbn (default)\n",
      "    Metadata:\n",
      "      handler_name    : VideoHandler\n",
      "      vendor_id       : [0][0][0][0]\n",
      "      encoder         : Lavc58.134.100 libx265\n",
      "    Side data:\n",
      "      cpb: bitrate max/min/avg: 0/0/0 buffer size: 0 vbv_delay: N/A\n",
      "frame=   24 fps=0.0 q=21.3 Lsize=     187kB time=00:00:02.10 bitrate= 728.5kbits/s speed=5.13x    \n",
      "video:183kB audio:0kB subtitle:0kB other streams:0kB global headers:2kB muxing overhead: 1.880631%\n",
      "x265 [info]: frame I:      1, Avg QP:15.73  kb/s: 1559.04 \n",
      "x265 [info]: frame P:      5, Avg QP:16.77  kb/s: 1021.38 \n",
      "x265 [info]: frame B:     18, Avg QP:20.77  kb/s: 463.48  \n",
      "x265 [info]: Weighted P-Frames: Y:0.0% UV:0.0%\n",
      "x265 [info]: consecutive B-frames: 16.7% 0.0% 0.0% 33.3% 50.0% \n",
      "\n",
      "encoded 24 frames in 0.39s (60.84 fps), 625.36 kb/s, Avg QP:19.73\n",
      "ffmpeg version 4.4.2-0ubuntu0.22.04.1 Copyright (c) 2000-2021 the FFmpeg developers\n",
      "  built with gcc 11 (Ubuntu 11.2.0-19ubuntu1)\n",
      "  configuration: --prefix=/usr --extra-version=0ubuntu0.22.04.1 --toolchain=hardened --libdir=/usr/lib/x86_64-linux-gnu --incdir=/usr/include/x86_64-linux-gnu --arch=amd64 --enable-gpl --disable-stripping --enable-gnutls --enable-ladspa --enable-libaom --enable-libass --enable-libbluray --enable-libbs2b --enable-libcaca --enable-libcdio --enable-libcodec2 --enable-libdav1d --enable-libflite --enable-libfontconfig --enable-libfreetype --enable-libfribidi --enable-libgme --enable-libgsm --enable-libjack --enable-libmp3lame --enable-libmysofa --enable-libopenjpeg --enable-libopenmpt --enable-libopus --enable-libpulse --enable-librabbitmq --enable-librubberband --enable-libshine --enable-libsnappy --enable-libsoxr --enable-libspeex --enable-libsrt --enable-libssh --enable-libtheora --enable-libtwolame --enable-libvidstab --enable-libvorbis --enable-libvpx --enable-libwebp --enable-libx265 --enable-libxml2 --enable-libxvid --enable-libzimg --enable-libzmq --enable-libzvbi --enable-lv2 --enable-omx --enable-openal --enable-opencl --enable-opengl --enable-sdl2 --enable-pocketsphinx --enable-librsvg --enable-libmfx --enable-libdc1394 --enable-libdrm --enable-libiec61883 --enable-chromaprint --enable-frei0r --enable-libx264 --enable-shared\n",
      "  libavutil      56. 70.100 / 56. 70.100\n",
      "  libavcodec     58.134.100 / 58.134.100\n",
      "  libavformat    58. 76.100 / 58. 76.100\n",
      "  libavdevice    58. 13.100 / 58. 13.100\n",
      "  libavfilter     7.110.100 /  7.110.100\n",
      "  libswscale      5.  9.100 /  5.  9.100\n",
      "  libswresample   3.  9.100 /  3.  9.100\n",
      "  libpostproc    55.  9.100 / 55.  9.100\n",
      "Input #0, mov,mp4,m4a,3gp,3g2,mj2, from 'yolos/origin/3_0_0002.mp4':\n",
      "  Metadata:\n",
      "    major_brand     : isom\n",
      "    minor_version   : 512\n",
      "    compatible_brands: isomiso2avc1mp41\n",
      "    encoder         : Lavf60.16.100\n",
      "  Duration: 00:00:02.40, start: 0.000000, bitrate: 3923 kb/s\n",
      "  Stream #0:0(und): Video: h264 (High) (avc1 / 0x31637661), yuv420p, 512x320, 3919 kb/s, 10 fps, 10 tbr, 10240 tbn, 20 tbc (default)\n",
      "    Metadata:\n",
      "      handler_name    : VideoHandler\n",
      "      vendor_id       : [0][0][0][0]\n",
      "Stream mapping:\n",
      "  Stream #0:0 -> #0:0 (h264 (native) -> hevc (libx265))\n",
      "Press [q] to stop, [?] for help\n",
      "x265 [info]: HEVC encoder version 3.5+1-f0c1022b6\n",
      "x265 [info]: build info [Linux][GCC 11.2.0][64 bit] 8bit+10bit+12bit\n",
      "x265 [info]: using cpu capabilities: MMX2 SSE2Fast LZCNT SSSE3 SSE4.2 AVX FMA3 BMI2 AVX2\n",
      "x265 [info]: Main profile, Level-2.1 (Main tier)\n",
      "x265 [warning]: No thread pool allocated, --wpp disabled\n",
      "x265 [warning]: No thread pool allocated, --lookahead-slices disabled\n",
      "x265 [info]: Slices                              : 1\n",
      "x265 [info]: frame threads / pool features       : 5 / none\n",
      "x265 [info]: Coding QT: max CU size, min CU size : 64 / 8\n",
      "x265 [info]: Residual QT: max TU size, max depth : 32 / 1 inter / 1 intra\n",
      "x265 [info]: ME / range / subpel / merge         : hex / 57 / 2 / 3\n",
      "x265 [info]: Keyframe min / max / scenecut / bias  : 10 / 250 / 40 / 5.00 \n",
      "x265 [info]: Lookahead / bframes / badapt        : 20 / 4 / 2\n",
      "x265 [info]: b-pyramid / weightp / weightb       : 1 / 1 / 0\n",
      "x265 [info]: References / ref-limit  cu / depth  : 3 / off / on\n",
      "x265 [info]: AQ: mode / str / qg-size / cu-tree  : 2 / 1.0 / 32 / 1\n",
      "x265 [info]: Rate Control / qCompress            : CRF-18.0 / 0.60\n",
      "x265 [info]: tools: rd=3 psy-rd=2.00 early-skip rskip mode=1 signhide tmvp\n",
      "x265 [info]: tools: b-intra strong-intra-smoothing deblock sao\n",
      "Output #0, mp4, to 'yolos/origin/compressed_3_0_0002.mp4':\n",
      "  Metadata:\n",
      "    major_brand     : isom\n",
      "    minor_version   : 512\n",
      "    compatible_brands: isomiso2avc1mp41\n",
      "    encoder         : Lavf58.76.100\n",
      "  Stream #0:0(und): Video: hevc (hvc1 / 0x31637668), yuv420p(progressive), 512x320, q=2-31, 10 fps, 10240 tbn (default)\n",
      "    Metadata:\n",
      "      handler_name    : VideoHandler\n",
      "      vendor_id       : [0][0][0][0]\n",
      "      encoder         : Lavc58.134.100 libx265\n",
      "    Side data:\n",
      "      cpb: bitrate max/min/avg: 0/0/0 buffer size: 0 vbv_delay: N/A\n",
      "frame=   24 fps=0.0 q=22.7 Lsize=     532kB time=00:00:02.10 bitrate=2077.1kbits/s speed=4.16x    \n",
      "video:529kB audio:0kB subtitle:0kB other streams:0kB global headers:2kB muxing overhead: 0.651609%\n",
      "x265 [info]: frame I:      1, Avg QP:15.68  kb/s: 4335.60 \n",
      "x265 [info]: frame P:      5, Avg QP:17.13  kb/s: 3094.59 \n",
      "x265 [info]: frame B:     18, Avg QP:22.16  kb/s: 1306.81 \n",
      "x265 [info]: Weighted P-Frames: Y:0.0% UV:0.0%\n",
      "x265 [info]: consecutive B-frames: 16.7% 0.0% 0.0% 33.3% 50.0% \n",
      "\n",
      "encoded 24 frames in 0.48s (49.52 fps), 1805.47 kb/s, Avg QP:20.84\n",
      "ffmpeg version 4.4.2-0ubuntu0.22.04.1 Copyright (c) 2000-2021 the FFmpeg developers\n",
      "  built with gcc 11 (Ubuntu 11.2.0-19ubuntu1)\n",
      "  configuration: --prefix=/usr --extra-version=0ubuntu0.22.04.1 --toolchain=hardened --libdir=/usr/lib/x86_64-linux-gnu --incdir=/usr/include/x86_64-linux-gnu --arch=amd64 --enable-gpl --disable-stripping --enable-gnutls --enable-ladspa --enable-libaom --enable-libass --enable-libbluray --enable-libbs2b --enable-libcaca --enable-libcdio --enable-libcodec2 --enable-libdav1d --enable-libflite --enable-libfontconfig --enable-libfreetype --enable-libfribidi --enable-libgme --enable-libgsm --enable-libjack --enable-libmp3lame --enable-libmysofa --enable-libopenjpeg --enable-libopenmpt --enable-libopus --enable-libpulse --enable-librabbitmq --enable-librubberband --enable-libshine --enable-libsnappy --enable-libsoxr --enable-libspeex --enable-libsrt --enable-libssh --enable-libtheora --enable-libtwolame --enable-libvidstab --enable-libvorbis --enable-libvpx --enable-libwebp --enable-libx265 --enable-libxml2 --enable-libxvid --enable-libzimg --enable-libzmq --enable-libzvbi --enable-lv2 --enable-omx --enable-openal --enable-opencl --enable-opengl --enable-sdl2 --enable-pocketsphinx --enable-librsvg --enable-libmfx --enable-libdc1394 --enable-libdrm --enable-libiec61883 --enable-chromaprint --enable-frei0r --enable-libx264 --enable-shared\n",
      "  libavutil      56. 70.100 / 56. 70.100\n",
      "  libavcodec     58.134.100 / 58.134.100\n",
      "  libavformat    58. 76.100 / 58. 76.100\n",
      "  libavdevice    58. 13.100 / 58. 13.100\n",
      "  libavfilter     7.110.100 /  7.110.100\n",
      "  libswscale      5.  9.100 /  5.  9.100\n",
      "  libswresample   3.  9.100 /  3.  9.100\n",
      "  libpostproc    55.  9.100 / 55.  9.100\n",
      "Input #0, mov,mp4,m4a,3gp,3g2,mj2, from 'yolos/origin/4_3_0002.mp4':\n",
      "  Metadata:\n",
      "    major_brand     : isom\n",
      "    minor_version   : 512\n",
      "    compatible_brands: isomiso2avc1mp41\n",
      "    encoder         : Lavf60.16.100\n",
      "  Duration: 00:00:02.40, start: 0.000000, bitrate: 2030 kb/s\n",
      "  Stream #0:0(und): Video: h264 (High) (avc1 / 0x31637661), yuv420p, 512x320, 2026 kb/s, 10 fps, 10 tbr, 10240 tbn, 20 tbc (default)\n",
      "    Metadata:\n",
      "      handler_name    : VideoHandler\n",
      "      vendor_id       : [0][0][0][0]\n",
      "Stream mapping:\n",
      "  Stream #0:0 -> #0:0 (h264 (native) -> hevc (libx265))\n",
      "Press [q] to stop, [?] for help\n",
      "x265 [info]: HEVC encoder version 3.5+1-f0c1022b6\n",
      "x265 [info]: build info [Linux][GCC 11.2.0][64 bit] 8bit+10bit+12bit\n",
      "x265 [info]: using cpu capabilities: MMX2 SSE2Fast LZCNT SSSE3 SSE4.2 AVX FMA3 BMI2 AVX2\n",
      "x265 [info]: Main profile, Level-2.1 (Main tier)\n",
      "x265 [warning]: No thread pool allocated, --wpp disabled\n",
      "x265 [warning]: No thread pool allocated, --lookahead-slices disabled\n",
      "x265 [info]: Slices                              : 1\n",
      "x265 [info]: frame threads / pool features       : 5 / none\n",
      "x265 [info]: Coding QT: max CU size, min CU size : 64 / 8\n",
      "x265 [info]: Residual QT: max TU size, max depth : 32 / 1 inter / 1 intra\n",
      "x265 [info]: ME / range / subpel / merge         : hex / 57 / 2 / 3\n",
      "x265 [info]: Keyframe min / max / scenecut / bias  : 10 / 250 / 40 / 5.00 \n",
      "x265 [info]: Lookahead / bframes / badapt        : 20 / 4 / 2\n",
      "x265 [info]: b-pyramid / weightp / weightb       : 1 / 1 / 0\n",
      "x265 [info]: References / ref-limit  cu / depth  : 3 / off / on\n",
      "x265 [info]: AQ: mode / str / qg-size / cu-tree  : 2 / 1.0 / 32 / 1\n",
      "x265 [info]: Rate Control / qCompress            : CRF-18.0 / 0.60\n",
      "x265 [info]: tools: rd=3 psy-rd=2.00 early-skip rskip mode=1 signhide tmvp\n",
      "x265 [info]: tools: b-intra strong-intra-smoothing deblock sao\n",
      "Output #0, mp4, to 'yolos/origin/compressed_4_3_0002.mp4':\n",
      "  Metadata:\n",
      "    major_brand     : isom\n",
      "    minor_version   : 512\n",
      "    compatible_brands: isomiso2avc1mp41\n",
      "    encoder         : Lavf58.76.100\n",
      "  Stream #0:0(und): Video: hevc (hvc1 / 0x31637668), yuv420p(progressive), 512x320, q=2-31, 10 fps, 10240 tbn (default)\n",
      "    Metadata:\n",
      "      handler_name    : VideoHandler\n",
      "      vendor_id       : [0][0][0][0]\n",
      "      encoder         : Lavc58.134.100 libx265\n",
      "    Side data:\n",
      "      cpb: bitrate max/min/avg: 0/0/0 buffer size: 0 vbv_delay: N/A\n",
      "frame=   24 fps=0.0 q=21.3 Lsize=     198kB time=00:00:02.10 bitrate= 770.4kbits/s speed=5.53x    \n",
      "video:194kB audio:0kB subtitle:0kB other streams:0kB global headers:2kB muxing overhead: 1.776351%\n",
      "x265 [info]: frame I:      1, Avg QP:15.62  kb/s: 1637.12 \n",
      "x265 [info]: frame P:      5, Avg QP:16.51  kb/s: 1176.77 \n",
      "x265 [info]: frame B:     18, Avg QP:20.89  kb/s: 464.95  \n",
      "x265 [info]: Weighted P-Frames: Y:0.0% UV:0.0%\n",
      "x265 [info]: consecutive B-frames: 16.7% 0.0% 0.0% 33.3% 50.0% \n",
      "\n",
      "encoded 24 frames in 0.36s (65.84 fps), 662.09 kb/s, Avg QP:19.75\n",
      "ffmpeg version 4.4.2-0ubuntu0.22.04.1 Copyright (c) 2000-2021 the FFmpeg developers\n",
      "  built with gcc 11 (Ubuntu 11.2.0-19ubuntu1)\n",
      "  configuration: --prefix=/usr --extra-version=0ubuntu0.22.04.1 --toolchain=hardened --libdir=/usr/lib/x86_64-linux-gnu --incdir=/usr/include/x86_64-linux-gnu --arch=amd64 --enable-gpl --disable-stripping --enable-gnutls --enable-ladspa --enable-libaom --enable-libass --enable-libbluray --enable-libbs2b --enable-libcaca --enable-libcdio --enable-libcodec2 --enable-libdav1d --enable-libflite --enable-libfontconfig --enable-libfreetype --enable-libfribidi --enable-libgme --enable-libgsm --enable-libjack --enable-libmp3lame --enable-libmysofa --enable-libopenjpeg --enable-libopenmpt --enable-libopus --enable-libpulse --enable-librabbitmq --enable-librubberband --enable-libshine --enable-libsnappy --enable-libsoxr --enable-libspeex --enable-libsrt --enable-libssh --enable-libtheora --enable-libtwolame --enable-libvidstab --enable-libvorbis --enable-libvpx --enable-libwebp --enable-libx265 --enable-libxml2 --enable-libxvid --enable-libzimg --enable-libzmq --enable-libzvbi --enable-lv2 --enable-omx --enable-openal --enable-opencl --enable-opengl --enable-sdl2 --enable-pocketsphinx --enable-librsvg --enable-libmfx --enable-libdc1394 --enable-libdrm --enable-libiec61883 --enable-chromaprint --enable-frei0r --enable-libx264 --enable-shared\n",
      "  libavutil      56. 70.100 / 56. 70.100\n",
      "  libavcodec     58.134.100 / 58.134.100\n",
      "  libavformat    58. 76.100 / 58. 76.100\n",
      "  libavdevice    58. 13.100 / 58. 13.100\n",
      "  libavfilter     7.110.100 /  7.110.100\n",
      "  libswscale      5.  9.100 /  5.  9.100\n",
      "  libswresample   3.  9.100 /  3.  9.100\n",
      "  libpostproc    55.  9.100 / 55.  9.100\n",
      "Input #0, mov,mp4,m4a,3gp,3g2,mj2, from 'yolos/origin/5_1_0002.mp4':\n",
      "  Metadata:\n",
      "    major_brand     : isom\n",
      "    minor_version   : 512\n",
      "    compatible_brands: isomiso2avc1mp41\n",
      "    encoder         : Lavf60.16.100\n",
      "  Duration: 00:00:02.40, start: 0.000000, bitrate: 2254 kb/s\n",
      "  Stream #0:0(und): Video: h264 (High) (avc1 / 0x31637661), yuv420p, 512x320, 2250 kb/s, 10 fps, 10 tbr, 10240 tbn, 20 tbc (default)\n",
      "    Metadata:\n",
      "      handler_name    : VideoHandler\n",
      "      vendor_id       : [0][0][0][0]\n",
      "Stream mapping:\n",
      "  Stream #0:0 -> #0:0 (h264 (native) -> hevc (libx265))\n",
      "Press [q] to stop, [?] for help\n",
      "x265 [info]: HEVC encoder version 3.5+1-f0c1022b6\n",
      "x265 [info]: build info [Linux][GCC 11.2.0][64 bit] 8bit+10bit+12bit\n",
      "x265 [info]: using cpu capabilities: MMX2 SSE2Fast LZCNT SSSE3 SSE4.2 AVX FMA3 BMI2 AVX2\n",
      "x265 [info]: Main profile, Level-2.1 (Main tier)\n",
      "x265 [warning]: No thread pool allocated, --wpp disabled\n",
      "x265 [warning]: No thread pool allocated, --lookahead-slices disabled\n",
      "x265 [info]: Slices                              : 1\n",
      "x265 [info]: frame threads / pool features       : 5 / none\n",
      "x265 [info]: Coding QT: max CU size, min CU size : 64 / 8\n",
      "x265 [info]: Residual QT: max TU size, max depth : 32 / 1 inter / 1 intra\n",
      "x265 [info]: ME / range / subpel / merge         : hex / 57 / 2 / 3\n",
      "x265 [info]: Keyframe min / max / scenecut / bias  : 10 / 250 / 40 / 5.00 \n",
      "x265 [info]: Lookahead / bframes / badapt        : 20 / 4 / 2\n",
      "x265 [info]: b-pyramid / weightp / weightb       : 1 / 1 / 0\n",
      "x265 [info]: References / ref-limit  cu / depth  : 3 / off / on\n",
      "x265 [info]: AQ: mode / str / qg-size / cu-tree  : 2 / 1.0 / 32 / 1\n",
      "x265 [info]: Rate Control / qCompress            : CRF-18.0 / 0.60\n",
      "x265 [info]: tools: rd=3 psy-rd=2.00 early-skip rskip mode=1 signhide tmvp\n",
      "x265 [info]: tools: b-intra strong-intra-smoothing deblock sao\n",
      "Output #0, mp4, to 'yolos/origin/compressed_5_1_0002.mp4':\n",
      "  Metadata:\n",
      "    major_brand     : isom\n",
      "    minor_version   : 512\n",
      "    compatible_brands: isomiso2avc1mp41\n",
      "    encoder         : Lavf58.76.100\n",
      "  Stream #0:0(und): Video: hevc (hvc1 / 0x31637668), yuv420p(progressive), 512x320, q=2-31, 10 fps, 10240 tbn (default)\n",
      "    Metadata:\n",
      "      handler_name    : VideoHandler\n",
      "      vendor_id       : [0][0][0][0]\n",
      "      encoder         : Lavc58.134.100 libx265\n",
      "    Side data:\n",
      "      cpb: bitrate max/min/avg: 0/0/0 buffer size: 0 vbv_delay: N/A\n",
      "frame=   24 fps=0.0 q=20.4 Lsize=     154kB time=00:00:02.10 bitrate= 601.8kbits/s speed=6.49x    \n",
      "video:151kB audio:0kB subtitle:0kB other streams:0kB global headers:2kB muxing overhead: 2.285440%\n",
      "x265 [info]: frame I:      1, Avg QP:15.33  kb/s: 1318.40 \n",
      "x265 [info]: frame P:      5, Avg QP:16.05  kb/s: 872.18  \n",
      "x265 [info]: frame B:     18, Avg QP:20.00  kb/s: 370.53  \n",
      "x265 [info]: Weighted P-Frames: Y:0.0% UV:0.0%\n",
      "x265 [info]: consecutive B-frames: 16.7% 0.0% 0.0% 33.3% 50.0% \n",
      "\n",
      "encoded 24 frames in 0.31s (78.29 fps), 514.53 kb/s, Avg QP:18.98\n",
      "ffmpeg version 4.4.2-0ubuntu0.22.04.1 Copyright (c) 2000-2021 the FFmpeg developers\n",
      "  built with gcc 11 (Ubuntu 11.2.0-19ubuntu1)\n",
      "  configuration: --prefix=/usr --extra-version=0ubuntu0.22.04.1 --toolchain=hardened --libdir=/usr/lib/x86_64-linux-gnu --incdir=/usr/include/x86_64-linux-gnu --arch=amd64 --enable-gpl --disable-stripping --enable-gnutls --enable-ladspa --enable-libaom --enable-libass --enable-libbluray --enable-libbs2b --enable-libcaca --enable-libcdio --enable-libcodec2 --enable-libdav1d --enable-libflite --enable-libfontconfig --enable-libfreetype --enable-libfribidi --enable-libgme --enable-libgsm --enable-libjack --enable-libmp3lame --enable-libmysofa --enable-libopenjpeg --enable-libopenmpt --enable-libopus --enable-libpulse --enable-librabbitmq --enable-librubberband --enable-libshine --enable-libsnappy --enable-libsoxr --enable-libspeex --enable-libsrt --enable-libssh --enable-libtheora --enable-libtwolame --enable-libvidstab --enable-libvorbis --enable-libvpx --enable-libwebp --enable-libx265 --enable-libxml2 --enable-libxvid --enable-libzimg --enable-libzmq --enable-libzvbi --enable-lv2 --enable-omx --enable-openal --enable-opencl --enable-opengl --enable-sdl2 --enable-pocketsphinx --enable-librsvg --enable-libmfx --enable-libdc1394 --enable-libdrm --enable-libiec61883 --enable-chromaprint --enable-frei0r --enable-libx264 --enable-shared\n",
      "  libavutil      56. 70.100 / 56. 70.100\n",
      "  libavcodec     58.134.100 / 58.134.100\n",
      "  libavformat    58. 76.100 / 58. 76.100\n",
      "  libavdevice    58. 13.100 / 58. 13.100\n",
      "  libavfilter     7.110.100 /  7.110.100\n",
      "  libswscale      5.  9.100 /  5.  9.100\n",
      "  libswresample   3.  9.100 /  3.  9.100\n",
      "  libpostproc    55.  9.100 / 55.  9.100\n",
      "Input #0, mov,mp4,m4a,3gp,3g2,mj2, from 'yolos/origin/5_3_0003.mp4':\n",
      "  Metadata:\n",
      "    major_brand     : isom\n",
      "    minor_version   : 512\n",
      "    compatible_brands: isomiso2avc1mp41\n",
      "    encoder         : Lavf60.16.100\n",
      "  Duration: 00:00:02.40, start: 0.000000, bitrate: 4284 kb/s\n",
      "  Stream #0:0(und): Video: h264 (High) (avc1 / 0x31637661), yuv420p, 512x320, 4280 kb/s, 10 fps, 10 tbr, 10240 tbn, 20 tbc (default)\n",
      "    Metadata:\n",
      "      handler_name    : VideoHandler\n",
      "      vendor_id       : [0][0][0][0]\n",
      "Stream mapping:\n",
      "  Stream #0:0 -> #0:0 (h264 (native) -> hevc (libx265))\n",
      "Press [q] to stop, [?] for help\n",
      "x265 [info]: HEVC encoder version 3.5+1-f0c1022b6\n",
      "x265 [info]: build info [Linux][GCC 11.2.0][64 bit] 8bit+10bit+12bit\n",
      "x265 [info]: using cpu capabilities: MMX2 SSE2Fast LZCNT SSSE3 SSE4.2 AVX FMA3 BMI2 AVX2\n",
      "x265 [info]: Main profile, Level-2.1 (Main tier)\n",
      "x265 [warning]: No thread pool allocated, --wpp disabled\n",
      "x265 [warning]: No thread pool allocated, --lookahead-slices disabled\n",
      "x265 [info]: Slices                              : 1\n",
      "x265 [info]: frame threads / pool features       : 5 / none\n",
      "x265 [info]: Coding QT: max CU size, min CU size : 64 / 8\n",
      "x265 [info]: Residual QT: max TU size, max depth : 32 / 1 inter / 1 intra\n",
      "x265 [info]: ME / range / subpel / merge         : hex / 57 / 2 / 3\n",
      "x265 [info]: Keyframe min / max / scenecut / bias  : 10 / 250 / 40 / 5.00 \n",
      "x265 [info]: Lookahead / bframes / badapt        : 20 / 4 / 2\n",
      "x265 [info]: b-pyramid / weightp / weightb       : 1 / 1 / 0\n",
      "x265 [info]: References / ref-limit  cu / depth  : 3 / off / on\n",
      "x265 [info]: AQ: mode / str / qg-size / cu-tree  : 2 / 1.0 / 32 / 1\n",
      "x265 [info]: Rate Control / qCompress            : CRF-18.0 / 0.60\n",
      "x265 [info]: tools: rd=3 psy-rd=2.00 early-skip rskip mode=1 signhide tmvp\n",
      "x265 [info]: tools: b-intra strong-intra-smoothing deblock sao\n",
      "Output #0, mp4, to 'yolos/origin/compressed_5_3_0003.mp4':\n",
      "  Metadata:\n",
      "    major_brand     : isom\n",
      "    minor_version   : 512\n",
      "    compatible_brands: isomiso2avc1mp41\n",
      "    encoder         : Lavf58.76.100\n",
      "  Stream #0:0(und): Video: hevc (hvc1 / 0x31637668), yuv420p(progressive), 512x320, q=2-31, 10 fps, 10240 tbn (default)\n",
      "    Metadata:\n",
      "      handler_name    : VideoHandler\n",
      "      vendor_id       : [0][0][0][0]\n",
      "      encoder         : Lavc58.134.100 libx265\n",
      "    Side data:\n",
      "      cpb: bitrate max/min/avg: 0/0/0 buffer size: 0 vbv_delay: N/A\n",
      "frame=   24 fps=0.0 q=22.8 Lsize=     600kB time=00:00:02.10 bitrate=2340.0kbits/s speed=3.68x    \n",
      "video:596kB audio:0kB subtitle:0kB other streams:0kB global headers:2kB muxing overhead: 0.577991%\n",
      "x265 [info]: frame I:      1, Avg QP:16.33  kb/s: 4261.44 \n",
      "x265 [info]: frame P:      5, Avg QP:17.35  kb/s: 3328.11 \n",
      "x265 [info]: frame B:     18, Avg QP:22.19  kb/s: 1552.73 \n",
      "x265 [info]: Weighted P-Frames: Y:20.0% UV:0.0%\n",
      "x265 [info]: consecutive B-frames: 16.7% 0.0% 0.0% 33.3% 50.0% \n",
      "\n",
      "encoded 24 frames in 0.55s (43.78 fps), 2035.47 kb/s, Avg QP:20.94\n"
     ]
    }
   ],
   "source": [
    "import subprocess\n",
    "import os\n",
    "\n",
    "def compress_video(input_file, output_file, crf=28):\n",
    "    \"\"\"\n",
    "    Compress a video file using H.265 codec (HEVC).\n",
    "\n",
    "    Args:\n",
    "    - input_file (str): Path to the input video file.\n",
    "    - output_file (str): Path to save the compressed video file.\n",
    "    - crf (int): Constant Rate Factor for quality control (0-51, where lower is better quality).\n",
    "    \"\"\"\n",
    "    # command = [\n",
    "    #     'ffmpeg',\n",
    "    #     '-i', input_file,\n",
    "    #     '-c:v', 'libx265',\n",
    "    #     '-crf', str(crf),\n",
    "    #     '-preset', 'medium',  # other options: ultrafast, superfast, veryfast, faster, fast, slow, slower, veryslow\n",
    "    #     output_file\n",
    "    # ]\n",
    "    command = [\n",
    "        'ffmpeg',\n",
    "        '-i', input_file,\n",
    "        '-c:v', 'libx265',\n",
    "        '-crf', str(crf),\n",
    "        '-preset', 'medium',\n",
    "        '-tag:v', 'hvc1',  # Ensure compatibility with Safari\n",
    "        '-c:a', 'aac',  # Use AAC audio codec for compatibility\n",
    "        output_file\n",
    "    ]\n",
    "\n",
    "    subprocess.run(command, check=True)\n",
    "\n",
    "folder = 'yolos/origin'\n",
    "\n",
    "# loop through all the video files in the folder\n",
    "for file in os.listdir(folder):\n",
    "    if file.endswith('.mp4'):\n",
    "        input_file = os.path.join(folder, file)\n",
    "        output_file = os.path.join(folder, 'compressed_' + file)\n",
    "        compress_video(input_file, output_file, crf=18)\n",
    "\n",
    "# output_file = 'output.mp4'\n",
    "# compress_video(input_file, output_file, crf=18)"
   ]
  }
 ],
 "metadata": {
  "kernelspec": {
   "display_name": "pytorch",
   "language": "python",
   "name": "python3"
  },
  "language_info": {
   "codemirror_mode": {
    "name": "ipython",
    "version": 3
   },
   "file_extension": ".py",
   "mimetype": "text/x-python",
   "name": "python",
   "nbconvert_exporter": "python",
   "pygments_lexer": "ipython3",
   "version": "3.10.14"
  }
 },
 "nbformat": 4,
 "nbformat_minor": 2
}
